# Noesis .obj export.
#
mtllib unused.mtl
g
v  -1.624815 6.188219 -2.814263
v  -2.814263 6.188219 -1.624815
v  -3.249631 6.188219 -0.000000
v  0.000000 6.188219 -3.249630
v  1.624815 6.188219 -2.814263
v  2.814263 6.188219 -1.624815
v  3.249631 6.188219 -0.000000
v  2.814263 6.188219 1.624816
v  1.624815 6.188219 2.814263
v  0.000000 6.188219 3.249631
v  -1.624815 6.188219 2.814263
v  -2.814263 6.188219 1.624816
v  1.640239 -5.925382 0.000000
v  2.362642 -5.379323 -0.000000
v  2.046108 -5.379323 1.181321
v  1.420488 -5.925382 0.820119
v  0.958994 -6.195270 0.000000
v  0.830513 -6.195270 0.479497
v  2.046108 -5.379323 -1.181321
v  2.384191 -4.818728 -1.376513
v  2.753026 -4.818728 0.000000
v  2.384191 -4.818728 1.376513
v  1.376513 -4.818728 2.384191
v  1.181321 -5.379323 2.046107
v  0.820119 -5.925382 1.420488
v  0.479497 -6.195270 0.830513
v  0.000000 -6.387878 0.000000
v  0.830513 -6.195270 -0.479497
v  1.420488 -5.925382 -0.820120
v  0.820119 -5.925382 -1.420488
v  -0.830513 -6.195270 0.479497
v  -1.420488 -5.925382 0.820119
v  -1.640239 -5.925382 0.000000
v  -0.479497 -6.195270 0.830513
v  0.000000 -6.195270 0.958994
v  0.000000 -5.925382 1.640238
v  0.000000 -5.379323 2.362641
v  0.000000 -4.818728 2.753026
v  1.505492 -4.222780 2.607588
v  2.607588 -4.222780 1.505492
v  3.010984 -4.222780 0.000000
v  2.607588 -4.222780 -1.505492
v  0.000000 -4.222780 3.010983
v  -1.376513 -4.818728 2.384191
v  -1.181321 -5.379323 2.046107
v  -0.820119 -5.925382 1.420488
v  -2.046108 -5.379323 1.181321
v  -2.362642 -5.379323 -0.000000
v  -2.753026 -4.818728 0.000000
v  -2.384191 -4.818728 -1.376513
v  -2.384191 -4.818728 1.376513
v  -1.505492 -4.222780 2.607588
v  -2.607588 -4.222780 1.505492
v  2.703426 -3.589747 1.560824
v  1.560824 -3.589747 2.703426
v  0.000000 -3.589747 3.121647
v  -1.560824 -3.589747 2.703426
v  -2.703426 -3.589747 1.560824
v  -3.010984 -4.222780 0.000000
v  -2.607588 -4.222780 -1.505492
v  -1.376513 -4.818728 -2.384191
v  -2.046108 -5.379323 -1.181321
v  -1.505492 -4.222780 -2.607589
v  -2.703426 -3.589747 -1.560824
v  -3.121648 -3.589747 0.000000
v  -1.560824 -3.589747 -2.703426
v  -0.958994 -6.195270 0.000000
v  -1.420488 -5.925382 -0.820120
v  -1.181321 -5.379323 -2.046108
v  0.000000 -4.818728 -2.753026
v  0.000000 -4.222780 -3.010984
v  0.000000 -3.589746 -3.121648
v  1.505492 -4.222780 -2.607589
v  1.560824 -3.589747 -2.703426
v  2.703426 -3.589747 -1.560824
v  3.121648 -3.589747 0.000000
v  1.376513 -4.818728 -2.384191
v  0.000000 -5.379323 -2.362642
v  -0.820119 -5.925382 -1.420488
v  -0.830513 -6.195270 -0.479497
v  -0.479497 -6.195270 -0.830513
v  0.000000 -6.195270 -0.958994
v  0.000000 -5.925382 -1.640239
v  1.181321 -5.379323 -2.046108
v  0.479497 -6.195270 -0.830513
v  -2.703426 -3.589747 -1.560824
v  -3.121648 -3.589747 0.000000
v  -2.814263 3.043098 -1.624815
v  -1.624815 3.043098 -2.814263
v  -1.560824 -3.589747 -2.703426
v  0.000000 -3.589746 -3.121648
v  0.000000 3.043098 -3.249630
v  1.560824 -3.589747 -2.703426
v  1.624815 3.043098 -2.814263
v  2.703426 -3.589747 -1.560824
v  2.814263 3.043098 -1.624815
v  3.121648 -3.589747 0.000000
v  3.249631 3.043098 -0.000000
v  2.703426 -3.589747 1.560824
v  2.814263 3.043098 1.624815
v  1.560824 -3.589747 2.703426
v  1.624815 3.043098 2.814263
v  0.000000 -3.589747 3.121647
v  0.000000 3.043098 3.249631
v  -1.560824 -3.589747 2.703426
v  -1.624815 3.043098 2.814263
v  -2.703426 -3.589747 1.560824
v  -2.814263 3.043098 1.624815
v  -3.249631 3.043098 -0.000000
v  -1.485960 5.217201 2.573758
v  -1.577457 5.322265 2.732236
v  -2.573758 5.217201 1.485960
v  -2.732236 5.322265 -1.577457
v  -2.573758 5.217201 -1.485960
v  -2.971920 5.217201 0.000000
v  -3.154914 5.322265 -0.000000
v  -2.732236 5.322265 1.577457
v  -1.624815 5.535140 2.814263
v  0.000000 5.535140 3.249631
v  0.000000 5.322265 3.154915
v  1.624815 5.535140 2.814263
v  1.577457 5.322265 2.732236
v  2.814263 5.535140 1.624816
v  2.732236 5.322265 1.577457
v  3.249631 5.535140 0.000000
v  3.154914 5.322265 -0.000000
v  2.814263 5.535140 -1.624815
v  2.732236 5.322265 -1.577457
v  1.624815 5.535140 -2.814263
v  1.577457 5.322265 -2.732236
v  0.000000 5.322265 -3.154914
v  0.000000 5.535140 -3.249630
v  -1.577457 5.322265 -2.732236
v  -1.624815 5.535140 -2.814263
v  -2.814263 5.535140 -1.624815
v  -3.249631 5.535140 0.000000
v  -2.814263 5.535140 1.624816
v  0.000000 5.217201 2.971920
v  1.485960 5.217201 2.573758
v  2.573758 5.217201 1.485960
v  2.971920 5.217201 0.000000
v  2.573758 5.217201 -1.485960
v  1.485960 5.217201 -2.573758
v  0.000000 5.217201 -2.971920
v  -1.485960 5.217201 -2.573758
v  0.000000 3.256481 -3.156477
v  0.000000 3.366743 -2.971920
v  1.485960 3.366743 -2.573758
v  -1.578239 3.256481 -2.733590
v  -1.485960 3.366743 -2.573758
v  -2.733590 3.256481 -1.578239
v  -2.573758 3.366743 -1.485960
v  -3.156478 3.256481 0.000000
v  -2.971920 3.366743 0.000000
v  -2.573758 3.366743 1.485960
v  -2.733590 3.256481 1.578239
v  -1.485960 3.366743 2.573758
v  -3.249631 3.043098 -0.000000
v  -2.814263 3.043098 1.624815
v  -1.578239 3.256481 2.733590
v  0.000000 3.366743 2.971920
v  0.000000 3.256481 3.156478
v  1.485960 3.366743 2.573758
v  1.578239 3.256481 2.733590
v  2.733590 3.256481 1.578239
v  2.573758 3.366743 1.485960
v  3.156478 3.256481 0.000000
v  2.971920 3.366743 0.000000
v  2.733590 3.256481 -1.578239
v  2.573758 3.366743 -1.485960
v  1.578239 3.256481 -2.733590
v  -1.624815 3.043098 2.814263
v  0.000000 3.043098 3.249631
v  1.624815 3.043098 2.814263
v  2.814263 3.043098 1.624815
v  3.249631 3.043098 -0.000000
v  2.814263 3.043098 -1.624815
v  1.624815 3.043098 -2.814263
v  0.000000 3.043098 -3.249630
v  -1.624815 3.043098 -2.814263
v  -2.814263 3.043098 -1.624815
v  -1.624815 6.188219 2.814263
v  -1.624815 5.535140 2.814263
v  0.000000 5.535140 3.249631
v  -2.814263 6.188219 1.624816
v  -2.814263 5.535140 1.624816
v  -3.249631 5.535140 0.000000
v  -3.249631 6.188219 -0.000000
v  -2.814263 6.188219 -1.624815
v  -2.814263 5.535140 -1.624815
v  -1.624815 5.535140 -2.814263
v  -1.624815 6.188219 -2.814263
v  0.000000 5.535140 -3.249630
v  0.000000 6.188219 -3.249630
v  1.624815 5.535140 -2.814263
v  1.624815 6.188219 -2.814263
v  2.814263 5.535140 -1.624815
v  2.814263 6.188219 -1.624815
v  3.249631 5.535140 0.000000
v  3.249631 6.188219 -0.000000
v  2.814263 5.535140 1.624816
v  2.814263 6.188219 1.624816
v  1.624815 5.535140 2.814263
v  1.624815 6.188219 2.814263
v  0.000000 6.188219 3.249631
v  -2.573758 3.366743 1.485960
v  -2.573758 5.217201 1.485960
v  -2.971920 3.366743 0.000000
v  -1.485960 5.217201 2.573758
v  -1.485960 3.366743 2.573758
v  0.000000 5.217201 2.971920
v  0.000000 3.366743 2.971920
v  1.485960 5.217201 2.573758
v  1.485960 3.366743 2.573758
v  2.573758 5.217201 1.485960
v  2.573758 3.366743 1.485960
v  2.971920 5.217201 0.000000
v  2.971920 3.366743 0.000000
v  2.573758 5.217201 -1.485960
v  2.573758 3.366743 -1.485960
v  1.485960 5.217201 -2.573758
v  1.485960 3.366743 -2.573758
v  0.000000 5.217201 -2.971920
v  0.000000 3.366743 -2.971920
v  -1.485960 5.217201 -2.573758
v  -1.485960 3.366743 -2.573758
v  -2.573758 5.217201 -1.485960
v  -2.573758 3.366743 -1.485960
v  -2.971920 5.217201 0.000000

vt  0.132911 0.956009 0.000000
vt  0.038187 0.861284 0.000000
vt  0.003515 0.731888 0.000000
vt  0.262308 0.990680 0.000000
vt  0.391704 0.956009 0.000000
vt  0.486429 0.861284 0.000000
vt  0.521101 0.731888 0.000000
vt  0.486429 0.602491 0.000000
vt  0.391704 0.507766 0.000000
vt  0.262308 0.473095 0.000000
vt  0.132911 0.507766 0.000000
vt  0.038187 0.602491 0.000000
vt  0.308268 0.235673 0.000000
vt  0.353422 0.235673 0.000000
vt  0.335816 0.169966 0.000000
vt  0.296711 0.192543 0.000000
vt  0.271212 0.235673 0.000000
vt  0.264620 0.211071 0.000000
vt  0.335816 0.301379 0.000000
vt  0.363192 0.317185 0.000000
vt  0.385034 0.235673 0.000000
vt  0.363193 0.154160 0.000000
vt  0.303521 0.094489 0.000000
vt  0.287715 0.121866 0.000000
vt  0.265138 0.160970 0.000000
vt  0.246610 0.193061 0.000000
vt  0.222009 0.235673 0.000000
vt  0.264620 0.260274 0.000000
vt  0.296711 0.278802 0.000000
vt  0.265138 0.310375 0.000000
vt  0.179397 0.211071 0.000000
vt  0.147306 0.192543 0.000000
vt  0.135749 0.235673 0.000000
vt  0.197407 0.193061 0.000000
vt  0.222009 0.186469 0.000000
vt  0.222009 0.149413 0.000000
vt  0.222009 0.104260 0.000000
vt  0.222009 0.072647 0.000000
vt  0.317752 0.069839 0.000000
vt  0.387842 0.139929 0.000000
vt  0.413496 0.235673 0.000000
vt  0.387842 0.331416 0.000000
vt  0.222009 0.044185 0.000000
vt  0.140496 0.094489 0.000000
vt  0.156302 0.121866 0.000000
vt  0.178879 0.160970 0.000000
vt  0.108202 0.169966 0.000000
vt  0.090596 0.235673 0.000000
vt  0.058983 0.235673 0.000000
vt  0.080825 0.317185 0.000000
vt  0.080825 0.154160 0.000000
vt  0.126265 0.069839 0.000000
vt  0.056175 0.139929 0.000000
vt  0.409835 0.127231 0.000000
vt  0.330450 0.047846 0.000000
vt  0.222009 0.018790 0.000000
vt  0.113567 0.047846 0.000000
vt  0.034183 0.127231 0.000000
vt  0.030521 0.235673 0.000000
vt  0.056175 0.331416 0.000000
vt  0.140496 0.376857 0.000000
vt  0.108202 0.301379 0.000000
vt  0.126265 0.401506 0.000000
vt  0.034183 0.344114 0.000000
vt  0.005126 0.235673 0.000000
vt  0.113567 0.423499 0.000000
vt  0.172805 0.235673 0.000000
vt  0.147306 0.278802 0.000000
vt  0.156302 0.349480 0.000000
vt  0.222009 0.398698 0.000000
vt  0.222009 0.427160 0.000000
vt  0.222009 0.452555 0.000000
vt  0.317752 0.401506 0.000000
vt  0.330450 0.423499 0.000000
vt  0.409835 0.344114 0.000000
vt  0.438891 0.235673 0.000000
vt  0.303521 0.376857 0.000000
vt  0.222009 0.367086 0.000000
vt  0.178879 0.310375 0.000000
vt  0.179397 0.260274 0.000000
vt  0.197407 0.278284 0.000000
vt  0.222009 0.284876 0.000000
vt  0.222009 0.321932 0.000000
vt  0.287715 0.349480 0.000000
vt  0.246610 0.278284 0.000000
vt  0.993012 0.356165 0.000000
vt  0.993012 0.267761 0.000000
vt  0.634200 0.356165 0.000000
vt  0.634200 0.443451 0.000000
vt  0.993012 0.443451 0.000000
vt  0.993012 0.530481 0.000000
vt  0.634200 0.530481 0.000000
vt  0.993012 0.443451 0.000000
vt  0.634200 0.443451 0.000000
vt  0.993012 0.356165 0.000000
vt  0.634200 0.356165 0.000000
vt  0.993012 0.267761 0.000000
vt  0.634200 0.267761 0.000000
vt  0.993012 0.180837 0.000000
vt  0.634200 0.180837 0.000000
vt  0.993012 0.093551 0.000000
vt  0.634200 0.093551 0.000000
vt  0.993012 0.006521 0.000000
vt  0.634200 0.006521 0.000000
vt  0.993012 0.093551 0.000000
vt  0.634200 0.093551 0.000000
vt  0.993012 0.180837 0.000000
vt  0.634200 0.180837 0.000000
vt  0.634200 0.267761 0.000000
vt  0.510737 0.093551 0.000000
vt  0.499314 0.093551 0.000000
vt  0.510737 0.180837 0.000000
vt  0.499314 0.356165 0.000000
vt  0.510737 0.356165 0.000000
vt  0.510737 0.267761 0.000000
vt  0.499314 0.267761 0.000000
vt  0.499314 0.180837 0.000000
vt  0.486656 0.093551 0.000000
vt  0.486656 0.006521 0.000000
vt  0.499314 0.006521 0.000000
vt  0.486656 0.093551 0.000000
vt  0.499314 0.093551 0.000000
vt  0.486656 0.180837 0.000000
vt  0.499314 0.180837 0.000000
vt  0.486656 0.267761 0.000000
vt  0.499314 0.267761 0.000000
vt  0.486656 0.356165 0.000000
vt  0.499314 0.356165 0.000000
vt  0.486656 0.443451 0.000000
vt  0.499314 0.443451 0.000000
vt  0.499314 0.530481 0.000000
vt  0.486656 0.530481 0.000000
vt  0.499314 0.443451 0.000000
vt  0.486656 0.443451 0.000000
vt  0.486656 0.356165 0.000000
vt  0.486656 0.267761 0.000000
vt  0.486656 0.180837 0.000000
vt  0.510737 0.006521 0.000000
vt  0.510737 0.093551 0.000000
vt  0.510737 0.180837 0.000000
vt  0.510737 0.267761 0.000000
vt  0.510737 0.356165 0.000000
vt  0.510737 0.443451 0.000000
vt  0.510737 0.530481 0.000000
vt  0.510737 0.443451 0.000000
vt  0.621556 0.530481 0.000000
vt  0.610002 0.530481 0.000000
vt  0.610002 0.443451 0.000000
vt  0.621556 0.443451 0.000000
vt  0.610002 0.443451 0.000000
vt  0.621556 0.356165 0.000000
vt  0.610002 0.356165 0.000000
vt  0.621556 0.267761 0.000000
vt  0.610002 0.267761 0.000000
vt  0.610002 0.180837 0.000000
vt  0.621556 0.180837 0.000000
vt  0.610002 0.093551 0.000000
vt  0.634200 0.267761 0.000000
vt  0.634200 0.180837 0.000000
vt  0.621556 0.093551 0.000000
vt  0.610002 0.006521 0.000000
vt  0.621556 0.006521 0.000000
vt  0.610002 0.093551 0.000000
vt  0.621556 0.093551 0.000000
vt  0.621556 0.180837 0.000000
vt  0.610002 0.180837 0.000000
vt  0.621556 0.267761 0.000000
vt  0.610002 0.267761 0.000000
vt  0.621556 0.356165 0.000000
vt  0.610002 0.356165 0.000000
vt  0.621556 0.443451 0.000000
vt  0.634200 0.093551 0.000000
vt  0.634200 0.006521 0.000000
vt  0.634200 0.093551 0.000000
vt  0.634200 0.180837 0.000000
vt  0.634200 0.267761 0.000000
vt  0.634200 0.356165 0.000000
vt  0.634200 0.443451 0.000000
vt  0.634200 0.530481 0.000000
vt  0.634200 0.443451 0.000000
vt  0.634200 0.356165 0.000000
vt  0.451603 0.093551 0.000000
vt  0.486656 0.093551 0.000000
vt  0.486656 0.006521 0.000000
vt  0.451603 0.180837 0.000000
vt  0.486656 0.180837 0.000000
vt  0.486656 0.267761 0.000000
vt  0.451603 0.267761 0.000000
vt  0.451603 0.356165 0.000000
vt  0.486656 0.356165 0.000000
vt  0.486656 0.443451 0.000000
vt  0.451603 0.443451 0.000000
vt  0.486656 0.530481 0.000000
vt  0.451603 0.530481 0.000000
vt  0.486656 0.443451 0.000000
vt  0.451603 0.443451 0.000000
vt  0.486656 0.356165 0.000000
vt  0.451603 0.356165 0.000000
vt  0.486656 0.267761 0.000000
vt  0.451603 0.267761 0.000000
vt  0.486656 0.180837 0.000000
vt  0.451603 0.180837 0.000000
vt  0.486656 0.093551 0.000000
vt  0.451603 0.093551 0.000000
vt  0.451603 0.006521 0.000000
vt  0.610002 0.180837 0.000000
vt  0.510737 0.180837 0.000000
vt  0.610002 0.267761 0.000000
vt  0.510737 0.093551 0.000000
vt  0.610002 0.093551 0.000000
vt  0.510737 0.006521 0.000000
vt  0.610002 0.006521 0.000000
vt  0.510737 0.093551 0.000000
vt  0.610002 0.093551 0.000000
vt  0.510737 0.180837 0.000000
vt  0.610002 0.180837 0.000000
vt  0.510737 0.267761 0.000000
vt  0.610002 0.267761 0.000000
vt  0.510737 0.356165 0.000000
vt  0.610002 0.356165 0.000000
vt  0.510737 0.443451 0.000000
vt  0.610002 0.443451 0.000000
vt  0.510737 0.530481 0.000000
vt  0.610002 0.530481 0.000000
vt  0.510737 0.443451 0.000000
vt  0.610002 0.443451 0.000000
vt  0.510737 0.356165 0.000000
vt  0.610002 0.356165 0.000000
vt  0.510737 0.267761 0.000000

vn  0.000000 1.000000 0.000000
vn  0.000000 1.000000 0.000000
vn  0.000000 1.000000 0.000000
vn  0.000000 1.000000 0.000000
vn  0.000000 1.000000 0.000000
vn  0.000000 1.000000 0.000000
vn  0.000000 1.000000 0.000000
vn  0.000000 1.000000 0.000000
vn  0.000000 1.000000 0.000000
vn  0.000000 1.000000 0.000000
vn  0.000000 1.000000 0.000000
vn  0.000000 1.000000 0.000000
vn  0.489647 -0.871921 0.000000
vn  0.720159 -0.693809 0.000000
vn  0.623676 -0.693809 0.360080
vn  0.424046 -0.871921 0.244823
vn  0.283602 -0.958942 0.000000
vn  0.245607 -0.958942 0.141801
vn  0.623676 -0.693809 -0.360080
vn  0.756375 -0.487028 -0.436693
vn  0.873386 -0.487028 -0.000000
vn  0.756375 -0.487028 0.436693
vn  0.436693 -0.487028 0.756375
vn  0.360080 -0.693809 0.623676
vn  0.244823 -0.871921 0.424046
vn  0.141801 -0.958942 0.245607
vn  0.000000 -1.000000 0.000000
vn  0.245607 -0.958942 -0.141801
vn  0.424046 -0.871921 -0.244823
vn  0.244823 -0.871921 -0.424046
vn  -0.245607 -0.958942 0.141801
vn  -0.424046 -0.871921 0.244823
vn  -0.489647 -0.871921 0.000000
vn  -0.141801 -0.958942 0.245607
vn  0.000000 -0.958942 0.283602
vn  0.000000 -0.871921 0.489647
vn  0.000000 -0.693809 0.720159
vn  0.000000 -0.487028 0.873386
vn  0.478973 -0.286949 0.829606
vn  0.829606 -0.286949 0.478973
vn  0.957946 -0.286949 0.000000
vn  0.829606 -0.286948 -0.478973
vn  0.000000 -0.286949 0.957946
vn  -0.436693 -0.487028 0.756375
vn  -0.360080 -0.693809 0.623676
vn  -0.244823 -0.871921 0.424046
vn  -0.623676 -0.693809 0.360080
vn  -0.720159 -0.693809 0.000000
vn  -0.873386 -0.487028 -0.000000
vn  -0.756375 -0.487028 -0.436693
vn  -0.756375 -0.487028 0.436693
vn  -0.478973 -0.286949 0.829606
vn  -0.829606 -0.286949 0.478973
vn  0.853088 -0.172204 0.492531
vn  0.492531 -0.172204 0.853088
vn  0.000000 -0.172204 0.985061
vn  -0.492531 -0.172204 0.853088
vn  -0.853088 -0.172204 0.492531
vn  -0.957946 -0.286949 0.000000
vn  -0.829606 -0.286948 -0.478973
vn  -0.436693 -0.487028 -0.756375
vn  -0.623676 -0.693809 -0.360080
vn  -0.478973 -0.286948 -0.829606
vn  -0.853088 -0.172204 -0.492531
vn  -0.985061 -0.172204 0.000000
vn  -0.492531 -0.172204 -0.853088
vn  -0.283602 -0.958942 0.000000
vn  -0.424046 -0.871921 -0.244823
vn  -0.360080 -0.693809 -0.623676
vn  0.000000 -0.487028 -0.873386
vn  0.000000 -0.286948 -0.957946
vn  0.000000 -0.172204 -0.985061
vn  0.478973 -0.286948 -0.829606
vn  0.492531 -0.172204 -0.853088
vn  0.853088 -0.172204 -0.492531
vn  0.985061 -0.172204 0.000000
vn  0.436693 -0.487028 -0.756375
vn  0.000000 -0.693809 -0.720159
vn  -0.244823 -0.871921 -0.424046
vn  -0.245607 -0.958942 -0.141801
vn  -0.141801 -0.958942 -0.245607
vn  0.000000 -0.958942 -0.283602
vn  0.000000 -0.871921 -0.489647
vn  0.360080 -0.693809 -0.623676
vn  0.141801 -0.958942 -0.245607
vn  -0.865864 -0.019292 -0.499907
vn  -0.999814 -0.019292 -0.000000
vn  -0.865864 -0.019292 -0.499907
vn  -0.499907 -0.019292 -0.865864
vn  -0.499907 -0.019292 -0.865864
vn  0.000000 -0.019292 -0.999814
vn  0.000000 -0.019292 -0.999814
vn  0.499907 -0.019292 -0.865864
vn  0.499907 -0.019292 -0.865864
vn  0.865864 -0.019292 -0.499907
vn  0.865864 -0.019292 -0.499907
vn  0.999814 -0.019292 -0.000000
vn  0.999814 -0.019292 -0.000000
vn  0.865864 -0.019292 0.499907
vn  0.865864 -0.019292 0.499907
vn  0.499907 -0.019292 0.865864
vn  0.499907 -0.019292 0.865864
vn  0.000000 -0.019292 0.999814
vn  0.000000 -0.019292 0.999814
vn  -0.499907 -0.019292 0.865864
vn  -0.499907 -0.019292 0.865864
vn  -0.865864 -0.019292 0.499907
vn  -0.865864 -0.019292 0.499907
vn  -0.999814 -0.019292 -0.000000
vn  -0.248953 -0.867231 0.431200
vn  -0.370098 -0.672391 0.641029
vn  -0.431200 -0.867231 0.248953
vn  -0.641029 -0.672391 -0.370098
vn  -0.431200 -0.867231 -0.248953
vn  -0.497907 -0.867230 -0.000000
vn  -0.740196 -0.672391 0.000000
vn  -0.641029 -0.672391 0.370098
vn  -0.456822 -0.406515 0.791239
vn  0.000000 -0.406515 0.913644
vn  0.000000 -0.672391 0.740196
vn  0.456822 -0.406515 0.791239
vn  0.370098 -0.672391 0.641029
vn  0.791239 -0.406515 0.456822
vn  0.641029 -0.672391 0.370098
vn  0.913644 -0.406515 0.000000
vn  0.740196 -0.672391 0.000000
vn  0.791239 -0.406515 -0.456822
vn  0.641029 -0.672391 -0.370098
vn  0.456822 -0.406515 -0.791239
vn  0.370098 -0.672391 -0.641029
vn  0.000000 -0.672391 -0.740196
vn  0.000000 -0.406515 -0.913644
vn  -0.370098 -0.672391 -0.641029
vn  -0.456822 -0.406515 -0.791239
vn  -0.791239 -0.406515 -0.456822
vn  -0.913644 -0.406515 0.000000
vn  -0.791239 -0.406515 0.456822
vn  0.000000 -0.867230 0.497907
vn  0.248953 -0.867231 0.431200
vn  0.431200 -0.867231 0.248953
vn  0.497907 -0.867230 -0.000000
vn  0.431200 -0.867231 -0.248953
vn  0.248953 -0.867231 -0.431200
vn  0.000000 -0.867230 -0.497907
vn  -0.248953 -0.867231 -0.431200
vn  0.000000 0.663236 -0.748411
vn  0.000000 0.858462 -0.512877
vn  0.256439 0.858462 -0.444165
vn  -0.374205 0.663236 -0.648143
vn  -0.256439 0.858462 -0.444165
vn  -0.648143 0.663236 -0.374205
vn  -0.444165 0.858462 -0.256439
vn  -0.748411 0.663236 0.000000
vn  -0.512877 0.858462 -0.000000
vn  -0.444165 0.858462 0.256439
vn  -0.648143 0.663236 0.374205
vn  -0.256439 0.858462 0.444165
vn  -0.916475 0.400091 -0.000000
vn  -0.793691 0.400091 0.458238
vn  -0.374205 0.663236 0.648143
vn  0.000000 0.858462 0.512877
vn  0.000000 0.663236 0.748411
vn  0.256439 0.858462 0.444165
vn  0.374205 0.663236 0.648143
vn  0.648143 0.663236 0.374205
vn  0.444165 0.858462 0.256439
vn  0.748411 0.663236 0.000000
vn  0.512877 0.858462 -0.000000
vn  0.648143 0.663236 -0.374205
vn  0.444165 0.858462 -0.256439
vn  0.374205 0.663236 -0.648143
vn  -0.458238 0.400091 0.793691
vn  0.000000 0.400091 0.916475
vn  0.458238 0.400091 0.793691
vn  0.793691 0.400091 0.458238
vn  0.916475 0.400091 -0.000000
vn  0.793691 0.400091 -0.458238
vn  0.458238 0.400091 -0.793691
vn  0.000000 0.400091 -0.916475
vn  -0.458238 0.400091 -0.793691
vn  -0.793691 0.400091 -0.458238
vn  -0.500000 -0.000000 0.866025
vn  -0.500000 -0.000000 0.866025
vn  0.000000 0.000000 1.000000
vn  -0.866025 0.000000 0.500000
vn  -0.866025 0.000000 0.500000
vn  -1.000000 0.000000 0.000000
vn  -1.000000 0.000000 0.000000
vn  -0.866025 0.000000 -0.500000
vn  -0.866025 0.000000 -0.500000
vn  -0.500000 0.000000 -0.866025
vn  -0.500000 0.000000 -0.866025
vn  0.000000 0.000000 -1.000000
vn  0.000000 0.000000 -1.000000
vn  0.500000 0.000000 -0.866025
vn  0.500000 0.000000 -0.866025
vn  0.866025 0.000000 -0.500000
vn  0.866025 0.000000 -0.500000
vn  1.000000 0.000000 0.000000
vn  1.000000 0.000000 0.000000
vn  0.866025 0.000000 0.500000
vn  0.866025 0.000000 0.500000
vn  0.500000 -0.000000 0.866025
vn  0.500000 -0.000000 0.866025
vn  0.000000 0.000000 1.000000
vn  -0.866025 0.000000 0.500000
vn  -0.866025 0.000000 0.500000
vn  -1.000000 0.000000 0.000000
vn  -0.500000 -0.000000 0.866025
vn  -0.500000 -0.000000 0.866025
vn  0.000000 0.000000 1.000000
vn  0.000000 0.000000 1.000000
vn  0.500000 -0.000000 0.866025
vn  0.500000 -0.000000 0.866025
vn  0.866025 0.000000 0.500000
vn  0.866025 0.000000 0.500000
vn  1.000000 0.000000 0.000000
vn  1.000000 0.000000 0.000000
vn  0.866025 0.000000 -0.500000
vn  0.866025 0.000000 -0.500000
vn  0.500000 0.000000 -0.866025
vn  0.500000 0.000000 -0.866025
vn  0.000000 0.000000 -1.000000
vn  0.000000 0.000000 -1.000000
vn  -0.500000 0.000000 -0.866025
vn  -0.500000 0.000000 -0.866025
vn  -0.866025 0.000000 -0.500000
vn  -0.866025 0.000000 -0.500000
vn  -1.000000 0.000000 0.000000

g rdmobj00
usemtl ""
f  1/1/1 2/2/2 3/3/3
f  4/4/4 1/1/1 3/3/3
f  5/5/5 4/4/4 3/3/3
f  6/6/6 5/5/5 3/3/3
f  7/7/7 6/6/6 3/3/3
f  8/8/8 7/7/7 3/3/3
f  9/9/9 8/8/8 3/3/3
f  10/10/10 9/9/9 3/3/3
f  11/11/11 10/10/10 3/3/3
f  12/12/12 11/11/11 3/3/3
f  13/13/13 14/14/14 15/15/15
f  16/16/16 13/13/13 15/15/15
f  17/17/17 13/13/13 16/16/16
f  18/18/18 17/17/17 16/16/16
f  19/19/19 20/20/20 21/21/21
f  14/14/14 19/19/19 21/21/21
f  15/15/15 14/14/14 22/22/22
f  14/14/14 21/21/21 22/22/22
f  15/15/15 22/22/22 23/23/23
f  24/24/24 15/15/15 23/23/23
f  16/16/16 15/15/15 24/24/24
f  18/18/18 16/16/16 25/25/25
f  25/25/25 16/16/16 24/24/24
f  26/26/26 18/18/18 25/25/25
f  18/18/18 27/27/27 17/17/17
f  26/26/26 27/27/27 18/18/18
f  17/17/17 28/28/28 13/13/13
f  17/17/17 27/27/27 28/28/28
f  28/28/28 29/29/29 13/13/13
f  13/13/13 29/29/29 14/14/14
f  29/29/29 19/19/19 14/14/14
f  29/29/29 30/30/30 19/19/19
f  31/31/31 32/32/32 33/33/33
f  31/31/31 27/27/27 34/34/34
f  31/31/31 34/34/34 32/32/32
f  35/35/35 27/27/27 26/26/26
f  34/34/34 27/27/27 35/35/35
f  26/26/26 25/25/25 36/36/36
f  35/35/35 26/26/26 36/36/36
f  36/36/36 25/25/25 37/37/37
f  25/25/25 24/24/24 37/37/37
f  24/24/24 23/23/23 38/38/38
f  37/37/37 24/24/24 38/38/38
f  38/38/38 23/23/23 39/39/39
f  23/23/23 22/22/22 40/40/40
f  39/39/39 23/23/23 40/40/40
f  40/40/40 22/22/22 41/41/41
f  22/22/22 21/21/21 41/41/41
f  21/21/21 20/20/20 42/42/42
f  41/41/41 21/21/21 42/42/42
f  43/43/43 38/38/38 39/39/39
f  44/44/44 38/38/38 43/43/43
f  37/37/37 38/38/38 44/44/44
f  36/36/36 37/37/37 45/45/45
f  45/45/45 37/37/37 44/44/44
f  46/46/46 36/36/36 45/45/45
f  35/35/35 36/36/36 46/46/46
f  34/34/34 35/35/35 46/46/46
f  34/34/34 46/46/46 32/32/32
f  46/46/46 45/45/45 47/47/47
f  32/32/32 46/46/46 47/47/47
f  32/32/32 47/47/47 48/48/48
f  33/33/33 32/32/32 48/48/48
f  48/48/48 47/47/47 49/49/49
f  48/48/48 49/49/49 50/50/50
f  47/47/47 51/51/51 49/49/49
f  45/45/45 44/44/44 51/51/51
f  47/47/47 45/45/45 51/51/51
f  52/52/52 44/44/44 43/43/43
f  51/51/51 44/44/44 52/52/52
f  53/53/53 51/51/51 52/52/52
f  51/51/51 53/53/53 49/49/49
f  40/40/40 41/41/41 54/54/54
f  40/40/40 54/54/54 55/55/55
f  39/39/39 40/40/40 55/55/55
f  39/39/39 55/55/55 56/56/56
f  43/43/43 39/39/39 56/56/56
f  52/52/52 43/43/43 57/57/57
f  43/43/43 56/56/56 57/57/57
f  53/53/53 52/52/52 58/58/58
f  52/52/52 57/57/57 58/58/58
f  53/53/53 58/58/58 59/59/59
f  53/53/53 59/59/59 49/49/49
f  50/50/50 49/49/49 60/60/60
f  49/49/49 59/59/59 60/60/60
f  61/61/61 50/50/50 60/60/60
f  33/33/33 48/48/48 62/62/62
f  62/62/62 48/48/48 50/50/50
f  62/62/62 50/50/50 61/61/61
f  63/63/63 61/61/61 60/60/60
f  64/64/64 60/60/60 59/59/59
f  63/63/63 60/60/60 64/64/64
f  58/58/58 65/65/65 59/59/59
f  65/65/65 64/64/64 59/59/59
f  66/66/66 63/63/63 64/64/64
f  67/67/67 31/31/31 33/33/33
f  31/31/31 67/67/67 27/27/27
f  67/67/67 33/33/33 68/68/68
f  68/68/68 33/33/33 62/62/62
f  69/69/69 62/62/62 61/61/61
f  68/68/68 62/62/62 69/69/69
f  70/70/70 61/61/61 63/63/63
f  69/69/69 61/61/61 70/70/70
f  71/71/71 70/70/70 63/63/63
f  71/71/71 63/63/63 66/66/66
f  72/72/72 71/71/71 66/66/66
f  42/42/42 20/20/20 73/73/73
f  73/73/73 71/71/71 72/72/72
f  42/42/42 73/73/73 74/74/74
f  74/74/74 73/73/73 72/72/72
f  75/75/75 42/42/42 74/74/74
f  41/41/41 42/42/42 75/75/75
f  41/41/41 76/76/76 54/54/54
f  76/76/76 41/41/41 75/75/75
f  73/73/73 77/77/77 71/71/71
f  77/77/77 70/70/70 71/71/71
f  20/20/20 77/77/77 73/73/73
f  78/78/78 70/70/70 77/77/77
f  78/78/78 69/69/69 70/70/70
f  79/79/79 68/68/68 69/69/69
f  79/79/79 69/69/69 78/78/78
f  80/80/80 67/67/67 68/68/68
f  80/80/80 27/27/27 67/67/67
f  80/80/80 68/68/68 79/79/79
f  81/81/81 27/27/27 80/80/80
f  81/81/81 80/80/80 79/79/79
f  82/82/82 27/27/27 81/81/81
f  82/82/82 83/83/83 30/30/30
f  82/82/82 81/81/81 83/83/83
f  83/83/83 79/79/79 78/78/78
f  81/81/81 79/79/79 83/83/83
f  84/84/84 78/78/78 77/77/77
f  83/83/83 78/78/78 84/84/84
f  30/30/30 84/84/84 19/19/19
f  84/84/84 77/77/77 20/20/20
f  19/19/19 84/84/84 20/20/20
f  30/30/30 83/83/83 84/84/84
f  85/85/85 30/30/30 29/29/29
f  85/85/85 82/82/82 30/30/30
f  85/85/85 27/27/27 82/82/82
f  28/28/28 27/27/27 85/85/85
f  28/28/28 85/85/85 29/29/29
f  86/86/86 87/87/87 88/88/88
f  86/86/86 88/88/88 89/89/89
f  90/90/90 86/86/86 89/89/89
f  90/90/90 89/89/89 91/91/91
f  89/89/89 92/92/92 91/91/91
f  91/91/91 92/92/92 93/93/93
f  92/92/92 94/94/94 93/93/93
f  93/93/93 94/94/94 95/95/95
f  94/94/94 96/96/96 95/95/95
f  95/95/95 96/96/96 97/97/97
f  96/96/96 98/98/98 97/97/97
f  97/97/97 98/98/98 99/99/99
f  98/98/98 100/100/100 99/99/99
f  99/99/99 100/100/100 101/101/101
f  100/100/100 102/102/102 101/101/101
f  101/101/101 102/102/102 103/103/103
f  102/102/102 104/104/104 103/103/103
f  103/103/103 104/104/104 105/105/105
f  104/104/104 106/106/106 105/105/105
f  105/105/105 106/106/106 107/107/107
f  87/87/87 107/107/107 108/108/108
f  106/106/106 108/108/108 107/107/107
f  87/87/87 109/109/109 88/88/88
f  109/109/109 87/87/87 108/108/108
f  110/110/110 111/111/111 112/112/112
f  113/113/113 114/114/114 115/115/115
f  115/115/115 112/112/112 116/116/116
f  116/116/116 113/113/113 115/115/115
f  112/112/112 117/117/117 116/116/116
f  111/111/111 117/117/117 112/112/112
f  117/117/117 111/111/111 118/118/118
f  119/119/119 118/118/118 111/111/111
f  120/120/120 119/119/119 111/111/111
f  121/121/121 119/119/119 120/120/120
f  122/122/122 121/121/121 120/120/120
f  123/123/123 121/121/121 122/122/122
f  124/124/124 123/123/123 122/122/122
f  125/125/125 123/123/123 124/124/124
f  126/126/126 125/125/125 124/124/124
f  127/127/127 125/125/125 126/126/126
f  128/128/128 127/127/127 126/126/126
f  129/129/129 127/127/127 128/128/128
f  130/130/130 129/129/129 128/128/128
f  129/129/129 130/130/130 131/131/131
f  132/132/132 129/129/129 131/131/131
f  132/132/132 131/131/131 133/133/133
f  113/113/113 133/133/133 114/114/114
f  134/134/134 133/133/133 113/113/113
f  134/134/134 132/132/132 133/133/133
f  135/135/135 134/134/134 113/113/113
f  135/135/135 113/113/113 116/116/116
f  136/136/136 135/135/135 116/116/116
f  116/116/116 117/117/117 136/136/136
f  137/137/137 117/117/117 118/118/118
f  117/117/117 137/137/137 136/136/136
f  120/120/120 111/111/111 138/138/138
f  111/111/111 110/110/110 138/138/138
f  120/120/120 138/138/138 139/139/139
f  122/122/122 120/120/120 139/139/139
f  124/124/124 122/122/122 140/140/140
f  122/122/122 139/139/139 140/140/140
f  140/140/140 141/141/141 124/124/124
f  141/141/141 126/126/126 124/124/124
f  141/141/141 142/142/142 126/126/126
f  142/142/142 128/128/128 126/126/126
f  143/143/143 130/130/130 128/128/128
f  142/142/142 143/143/143 128/128/128
f  130/130/130 143/143/143 144/144/144
f  131/131/131 130/130/130 144/144/144
f  133/133/133 145/145/145 114/114/114
f  133/133/133 131/131/131 145/145/145
f  131/131/131 144/144/144 145/145/145
f  146/146/146 147/147/147 148/148/148
f  146/146/146 149/149/149 147/147/147
f  149/149/149 150/150/150 147/147/147
f  149/149/149 151/151/151 150/150/150
f  151/151/151 152/152/152 150/150/150
f  151/151/151 153/153/153 152/152/152
f  153/153/153 154/154/154 152/152/152
f  154/154/154 153/153/153 155/155/155
f  153/153/153 156/156/156 155/155/155
f  157/157/157 155/155/155 156/156/156
f  153/153/153 151/151/151 158/158/158
f  159/159/159 156/156/156 153/153/153
f  158/158/158 159/159/159 153/153/153
f  160/160/160 157/157/157 156/156/156
f  156/156/156 159/159/159 160/160/160
f  161/161/161 157/157/157 160/160/160
f  162/162/162 161/161/161 160/160/160
f  163/163/163 161/161/161 162/162/162
f  164/164/164 163/163/163 162/162/162
f  164/164/164 165/165/165 163/163/163
f  165/165/165 166/166/166 163/163/163
f  165/165/165 167/167/167 166/166/166
f  167/167/167 168/168/168 166/166/166
f  167/167/167 169/169/169 168/168/168
f  169/169/169 170/170/170 168/168/168
f  171/171/171 148/148/148 170/170/170
f  171/171/171 146/146/146 148/148/148
f  169/169/169 171/171/171 170/170/170
f  160/160/160 172/172/172 162/162/162
f  159/159/159 172/172/172 160/160/160
f  164/164/164 162/162/162 173/173/173
f  172/172/172 173/173/173 162/162/162
f  165/165/165 164/164/164 174/174/174
f  174/174/174 164/164/164 173/173/173
f  167/167/167 165/165/165 175/175/175
f  175/175/175 165/165/165 174/174/174
f  169/169/169 167/167/167 176/176/176
f  176/176/176 167/167/167 175/175/175
f  177/177/177 169/169/169 176/176/176
f  171/171/171 169/169/169 177/177/177
f  178/178/178 171/171/171 177/177/177
f  146/146/146 171/171/171 179/179/179
f  171/171/171 178/178/178 179/179/179
f  146/146/146 179/179/179 180/180/180
f  149/149/149 146/146/146 180/180/180
f  151/151/151 149/149/149 181/181/181
f  151/151/151 181/181/181 158/158/158
f  149/149/149 180/180/180 181/181/181
f  182/182/182 183/183/183 184/184/184
f  182/182/182 185/185/185 183/183/183
f  185/185/185 186/186/186 183/183/183
f  186/186/186 185/185/185 187/187/187
f  185/185/185 188/188/188 187/187/187
f  187/187/187 188/188/188 189/189/189
f  190/190/190 187/187/187 189/189/189
f  191/191/191 190/190/190 189/189/189
f  192/192/192 191/191/191 189/189/189
f  193/193/193 191/191/191 192/192/192
f  194/194/194 193/193/193 192/192/192
f  195/195/195 193/193/193 194/194/194
f  196/196/196 195/195/195 194/194/194
f  197/197/197 195/195/195 196/196/196
f  198/198/198 197/197/197 196/196/196
f  199/199/199 197/197/197 198/198/198
f  200/200/200 199/199/199 198/198/198
f  201/201/201 199/199/199 200/200/200
f  202/202/202 201/201/201 200/200/200
f  203/203/203 201/201/201 202/202/202
f  204/204/204 203/203/203 202/202/202
f  184/184/184 203/203/203 204/204/204
f  205/205/205 182/182/182 184/184/184
f  205/205/205 184/184/184 204/204/204
f  206/206/206 207/207/207 208/208/208
f  207/207/207 206/206/206 209/209/209
f  206/206/206 210/210/210 209/209/209
f  209/209/209 210/210/210 211/211/211
f  210/210/210 212/212/212 211/211/211
f  211/211/211 212/212/212 213/213/213
f  212/212/212 214/214/214 213/213/213
f  213/213/213 214/214/214 215/215/215
f  214/214/214 216/216/216 215/215/215
f  215/215/215 216/216/216 217/217/217
f  216/216/216 218/218/218 217/217/217
f  217/217/217 218/218/218 219/219/219
f  218/218/218 220/220/220 219/219/219
f  219/219/219 220/220/220 221/221/221
f  220/220/220 222/222/222 221/221/221
f  221/221/221 222/222/222 223/223/223
f  222/222/222 224/224/224 223/223/223
f  223/223/223 224/224/224 225/225/225
f  224/224/224 226/226/226 225/225/225
f  225/225/225 226/226/226 227/227/227
f  228/228/228 208/208/208 227/227/227
f  226/226/226 228/228/228 227/227/227
f  207/207/207 229/229/229 208/208/208
f  208/208/208 229/229/229 227/227/227

g
