# Noesis .obj export.
#
mtllib unused.mtl
g
v  -3.249631 6.188219 0.000000
v  -1.624815 6.188219 -2.814263
v  -2.814263 6.188219 -1.624815
v  0.000000 6.188219 -3.249630
v  1.624815 6.188219 -2.814263
v  2.814263 6.188219 -1.624815
v  3.249631 6.188219 0.000000
v  2.814263 6.188219 1.624816
v  1.624815 6.188219 2.814263
v  0.000000 6.188219 3.249631
v  -1.624815 6.188219 2.814263
v  -2.814263 6.188219 1.624816
v  2.046108 -5.379323 1.181321
v  1.640239 -5.925382 0.000000
v  2.362642 -5.379323 0.000000
v  1.420488 -5.925382 0.820119
v  0.958994 -6.195270 0.000000
v  0.830513 -6.195270 0.479497
v  2.753026 -4.818728 0.000000
v  2.046108 -5.379323 -1.181321
v  2.384191 -4.818728 -1.376513
v  2.384191 -4.818728 1.376513
v  1.376513 -4.818728 2.384191
v  1.181321 -5.379323 2.046107
v  0.820119 -5.925382 1.420488
v  0.479497 -6.195270 0.830513
v  0.000000 -6.387878 0.000000
v  0.830513 -6.195270 -0.479497
v  1.420488 -5.925382 -0.820120
v  0.820119 -5.925382 -1.420488
v  -1.640239 -5.925382 0.000000
v  -0.830513 -6.195270 0.479497
v  -1.420488 -5.925382 0.820119
v  -0.479497 -6.195270 0.830513
v  0.000000 -6.195270 0.958994
v  0.000000 -5.925382 1.640238
v  0.000000 -5.379323 2.362641
v  0.000000 -4.818728 2.753026
v  1.505492 -4.222780 2.607588
v  2.607588 -4.222780 1.505492
v  3.010984 -4.222780 0.000000
v  2.607588 -4.222780 -1.505492
v  0.000000 -4.222780 3.010983
v  -1.376513 -4.818728 2.384191
v  -1.181321 -5.379323 2.046107
v  -0.820119 -5.925382 1.420488
v  -2.046108 -5.379323 1.181321
v  -2.362642 -5.379323 0.000000
v  -2.753026 -4.818728 0.000000
v  -2.384191 -4.818728 -1.376513
v  -2.384191 -4.818728 1.376513
v  -1.505492 -4.222780 2.607588
v  -2.607588 -4.222780 1.505492
v  2.703426 -3.589747 1.560824
v  1.560824 -3.589747 2.703426
v  0.000000 -3.589747 3.121647
v  -1.560824 -3.589747 2.703426
v  -2.703426 -3.589747 1.560824
v  -3.010984 -4.222780 0.000000
v  -2.607588 -4.222780 -1.505492
v  -1.376513 -4.818728 -2.384191
v  -2.046108 -5.379323 -1.181321
v  -1.505492 -4.222780 -2.607589
v  -2.703426 -3.589747 -1.560824
v  -3.121648 -3.589747 0.000000
v  -1.560824 -3.589747 -2.703426
v  -0.958994 -6.195270 0.000000
v  -1.420488 -5.925382 -0.820120
v  -1.181321 -5.379323 -2.046108
v  0.000000 -4.818728 -2.753026
v  0.000000 -4.222780 -3.010984
v  0.000000 -3.589746 -3.121648
v  1.505492 -4.222780 -2.607589
v  1.560824 -3.589747 -2.703426
v  2.703426 -3.589747 -1.560824
v  3.121648 -3.589747 0.000000
v  1.376513 -4.818728 -2.384191
v  0.000000 -5.379323 -2.362642
v  -0.820119 -5.925382 -1.420488
v  -0.830513 -6.195270 -0.479497
v  -0.479497 -6.195270 -0.830513
v  0.000000 -6.195270 -0.958994
v  0.000000 -5.925382 -1.640239
v  1.181321 -5.379323 -2.046108
v  0.479497 -6.195270 -0.830513
v  -2.814263 3.043098 -1.624815
v  -2.703426 -3.589747 -1.560824
v  -3.121648 -3.589747 0.000000
v  -1.624815 3.043098 -2.814263
v  -1.560824 -3.589747 -2.703426
v  0.000000 -3.589746 -3.121648
v  0.000000 3.043098 -3.249630
v  1.560824 -3.589747 -2.703426
v  1.624815 3.043098 -2.814263
v  2.703426 -3.589747 -1.560824
v  2.814263 3.043098 -1.624815
v  3.121648 -3.589747 0.000000
v  3.249631 3.043098 0.000000
v  2.703426 -3.589747 1.560824
v  2.814263 3.043098 1.624815
v  1.560824 -3.589747 2.703426
v  1.624815 3.043098 2.814263
v  0.000000 -3.589747 3.121647
v  0.000000 3.043098 3.249631
v  -1.560824 -3.589747 2.703426
v  -1.624815 3.043098 2.814263
v  -2.703426 -3.589747 1.560824
v  -2.814263 3.043098 1.624815
v  -3.249631 3.043098 0.000000
v  -2.573758 5.217201 1.485960
v  -1.485960 5.217201 2.573758
v  -1.577457 5.322265 2.732236
v  -2.971920 5.217201 0.000000
v  -2.732236 5.322265 -1.577457
v  -2.573758 5.217201 -1.485960
v  -3.154914 5.322265 0.000000
v  -2.732236 5.322265 1.577457
v  -1.624815 5.535140 2.814263
v  0.000000 5.535140 3.249631
v  0.000000 5.322265 3.154915
v  1.624815 5.535140 2.814263
v  1.577457 5.322265 2.732236
v  2.814263 5.535140 1.624816
v  2.732236 5.322265 1.577457
v  3.249631 5.535140 0.000000
v  3.154914 5.322265 0.000000
v  2.814263 5.535140 -1.624815
v  2.732236 5.322265 -1.577457
v  1.624815 5.535140 -2.814263
v  1.577457 5.322265 -2.732236
v  0.000000 5.322265 -3.154914
v  0.000000 5.535140 -3.249630
v  -1.577457 5.322265 -2.732236
v  -1.624815 5.535140 -2.814263
v  -2.814263 5.535140 -1.624815
v  -3.249631 5.535140 0.000000
v  -2.814263 5.535140 1.624816
v  0.000000 5.217201 2.971920
v  1.485960 5.217201 2.573758
v  2.573758 5.217201 1.485960
v  2.971920 5.217201 0.000000
v  2.573758 5.217201 -1.485960
v  1.485960 5.217201 -2.573758
v  0.000000 5.217201 -2.971920
v  -1.485960 5.217201 -2.573758
v  1.485960 3.366743 -2.573758
v  0.000000 3.256481 -3.156477
v  0.000000 3.366743 -2.971920
v  -1.578239 3.256481 -2.733590
v  -1.485960 3.366743 -2.573758
v  -2.733590 3.256481 -1.578239
v  -2.573758 3.366743 -1.485960
v  -3.156478 3.256481 0.000000
v  -2.971920 3.366743 0.000000
v  -2.573758 3.366743 1.485960
v  -2.733590 3.256481 1.578239
v  -1.485960 3.366743 2.573758
v  -3.249631 3.043098 0.000000
v  -2.814263 3.043098 1.624815
v  -1.578239 3.256481 2.733590
v  0.000000 3.366743 2.971920
v  0.000000 3.256481 3.156478
v  1.485960 3.366743 2.573758
v  1.578239 3.256481 2.733590
v  2.733590 3.256481 1.578239
v  2.573758 3.366743 1.485960
v  3.156478 3.256481 0.000000
v  2.971920 3.366743 0.000000
v  2.733590 3.256481 -1.578239
v  2.573758 3.366743 -1.485960
v  1.578239 3.256481 -2.733590
v  -1.624815 3.043098 2.814263
v  0.000000 3.043098 3.249631
v  1.624815 3.043098 2.814263
v  2.814263 3.043098 1.624815
v  3.249631 3.043098 0.000000
v  2.814263 3.043098 -1.624815
v  1.624815 3.043098 -2.814263
v  0.000000 3.043098 -3.249630
v  -1.624815 3.043098 -2.814263
v  -2.814263 3.043098 -1.624815
v  0.000000 5.535140 3.249631
v  -1.624815 6.188219 2.814263
v  -1.624815 5.535140 2.814263
v  -2.814263 6.188219 1.624816
v  -2.814263 5.535140 1.624816
v  -3.249631 5.535140 0.000000
v  -3.249631 6.188219 0.000000
v  -2.814263 6.188219 -1.624815
v  -2.814263 5.535140 -1.624815
v  -1.624815 5.535140 -2.814263
v  -1.624815 6.188219 -2.814263
v  0.000000 5.535140 -3.249630
v  0.000000 6.188219 -3.249630
v  1.624815 5.535140 -2.814263
v  1.624815 6.188219 -2.814263
v  2.814263 5.535140 -1.624815
v  2.814263 6.188219 -1.624815
v  3.249631 5.535140 0.000000
v  3.249631 6.188219 0.000000
v  2.814263 5.535140 1.624816
v  2.814263 6.188219 1.624816
v  1.624815 5.535140 2.814263
v  1.624815 6.188219 2.814263
v  0.000000 6.188219 3.249631
v  -2.971920 3.366743 0.000000
v  -2.573758 3.366743 1.485960
v  -2.573758 5.217201 1.485960
v  -1.485960 5.217201 2.573758
v  -1.485960 3.366743 2.573758
v  0.000000 5.217201 2.971920
v  0.000000 3.366743 2.971920
v  1.485960 5.217201 2.573758
v  1.485960 3.366743 2.573758
v  2.573758 5.217201 1.485960
v  2.573758 3.366743 1.485960
v  2.971920 5.217201 0.000000
v  2.971920 3.366743 0.000000
v  2.573758 5.217201 -1.485960
v  2.573758 3.366743 -1.485960
v  1.485960 5.217201 -2.573758
v  1.485960 3.366743 -2.573758
v  0.000000 5.217201 -2.971920
v  0.000000 3.366743 -2.971920
v  -1.485960 5.217201 -2.573758
v  -1.485960 3.366743 -2.573758
v  -2.573758 5.217201 -1.485960
v  -2.573758 3.366743 -1.485960
v  -2.971920 5.217201 0.000000

vt  0.003515 0.268112 0.000000
vt  0.132911 0.043991 0.000000
vt  0.038187 0.138716 0.000000
vt  0.262308 0.009320 0.000000
vt  0.391704 0.043991 0.000000
vt  0.486429 0.138716 0.000000
vt  0.521101 0.268112 0.000000
vt  0.486429 0.397509 0.000000
vt  0.391704 0.492234 0.000000
vt  0.262308 0.526905 0.000000
vt  0.132911 0.492234 0.000000
vt  0.038187 0.397509 0.000000
vt  0.335816 0.830034 0.000000
vt  0.308268 0.764327 0.000000
vt  0.353422 0.764327 0.000000
vt  0.296711 0.807457 0.000000
vt  0.271212 0.764327 0.000000
vt  0.264620 0.788929 0.000000
vt  0.385034 0.764327 0.000000
vt  0.335816 0.698621 0.000000
vt  0.363192 0.682815 0.000000
vt  0.363193 0.845840 0.000000
vt  0.303521 0.905511 0.000000
vt  0.287715 0.878134 0.000000
vt  0.265138 0.839030 0.000000
vt  0.246610 0.806939 0.000000
vt  0.222009 0.764327 0.000000
vt  0.264620 0.739726 0.000000
vt  0.296711 0.721198 0.000000
vt  0.265138 0.689625 0.000000
vt  0.135749 0.764327 0.000000
vt  0.179397 0.788929 0.000000
vt  0.147306 0.807457 0.000000
vt  0.197407 0.806939 0.000000
vt  0.222009 0.813531 0.000000
vt  0.222009 0.850587 0.000000
vt  0.222009 0.895740 0.000000
vt  0.222009 0.927353 0.000000
vt  0.317752 0.930161 0.000000
vt  0.387842 0.860071 0.000000
vt  0.413496 0.764327 0.000000
vt  0.387842 0.668584 0.000000
vt  0.222009 0.955815 0.000000
vt  0.140496 0.905511 0.000000
vt  0.156302 0.878134 0.000000
vt  0.178879 0.839030 0.000000
vt  0.108202 0.830034 0.000000
vt  0.090596 0.764327 0.000000
vt  0.058983 0.764327 0.000000
vt  0.080825 0.682815 0.000000
vt  0.080825 0.845840 0.000000
vt  0.126265 0.930161 0.000000
vt  0.056175 0.860071 0.000000
vt  0.409835 0.872769 0.000000
vt  0.330450 0.952154 0.000000
vt  0.222009 0.981210 0.000000
vt  0.113567 0.952154 0.000000
vt  0.034183 0.872769 0.000000
vt  0.030521 0.764327 0.000000
vt  0.056175 0.668584 0.000000
vt  0.140496 0.623143 0.000000
vt  0.108202 0.698621 0.000000
vt  0.126265 0.598494 0.000000
vt  0.034183 0.655886 0.000000
vt  0.005126 0.764327 0.000000
vt  0.113567 0.576501 0.000000
vt  0.172805 0.764327 0.000000
vt  0.147306 0.721198 0.000000
vt  0.156302 0.650520 0.000000
vt  0.222009 0.601302 0.000000
vt  0.222009 0.572840 0.000000
vt  0.222009 0.547445 0.000000
vt  0.317752 0.598494 0.000000
vt  0.330450 0.576501 0.000000
vt  0.409835 0.655886 0.000000
vt  0.438891 0.764327 0.000000
vt  0.303521 0.623143 0.000000
vt  0.222009 0.632914 0.000000
vt  0.178879 0.689625 0.000000
vt  0.179397 0.739726 0.000000
vt  0.197407 0.721716 0.000000
vt  0.222009 0.715124 0.000000
vt  0.222009 0.678068 0.000000
vt  0.287715 0.650520 0.000000
vt  0.246610 0.721716 0.000000
vt  0.634200 0.643835 0.000000
vt  0.993012 0.643835 0.000000
vt  0.993012 0.732239 0.000000
vt  0.634200 0.556549 0.000000
vt  0.993012 0.556549 0.000000
vt  0.993012 0.469519 0.000000
vt  0.634200 0.469519 0.000000
vt  0.993012 0.556549 0.000000
vt  0.634200 0.556549 0.000000
vt  0.993012 0.643835 0.000000
vt  0.634200 0.643835 0.000000
vt  0.993012 0.732239 0.000000
vt  0.634200 0.732239 0.000000
vt  0.993012 0.819163 0.000000
vt  0.634200 0.819163 0.000000
vt  0.993012 0.906449 0.000000
vt  0.634200 0.906449 0.000000
vt  0.993012 0.993479 0.000000
vt  0.634200 0.993479 0.000000
vt  0.993012 0.906449 0.000000
vt  0.634200 0.906449 0.000000
vt  0.993012 0.819163 0.000000
vt  0.634200 0.819163 0.000000
vt  0.634200 0.732239 0.000000
vt  0.510737 0.819163 0.000000
vt  0.510737 0.906449 0.000000
vt  0.499314 0.906449 0.000000
vt  0.510737 0.732239 0.000000
vt  0.499314 0.643835 0.000000
vt  0.510737 0.643835 0.000000
vt  0.499314 0.732239 0.000000
vt  0.499314 0.819163 0.000000
vt  0.486656 0.906449 0.000000
vt  0.486656 0.993479 0.000000
vt  0.499314 0.993479 0.000000
vt  0.486656 0.906449 0.000000
vt  0.499314 0.906449 0.000000
vt  0.486656 0.819163 0.000000
vt  0.499314 0.819163 0.000000
vt  0.486656 0.732239 0.000000
vt  0.499314 0.732239 0.000000
vt  0.486656 0.643835 0.000000
vt  0.499314 0.643835 0.000000
vt  0.486656 0.556549 0.000000
vt  0.499314 0.556549 0.000000
vt  0.499314 0.469519 0.000000
vt  0.486656 0.469519 0.000000
vt  0.499314 0.556549 0.000000
vt  0.486656 0.556549 0.000000
vt  0.486656 0.643835 0.000000
vt  0.486656 0.732239 0.000000
vt  0.486656 0.819163 0.000000
vt  0.510737 0.993479 0.000000
vt  0.510737 0.906449 0.000000
vt  0.510737 0.819163 0.000000
vt  0.510737 0.732239 0.000000
vt  0.510737 0.643835 0.000000
vt  0.510737 0.556549 0.000000
vt  0.510737 0.469519 0.000000
vt  0.510737 0.556549 0.000000
vt  0.610002 0.556549 0.000000
vt  0.621556 0.469519 0.000000
vt  0.610002 0.469519 0.000000
vt  0.621556 0.556549 0.000000
vt  0.610002 0.556549 0.000000
vt  0.621556 0.643835 0.000000
vt  0.610002 0.643835 0.000000
vt  0.621556 0.732239 0.000000
vt  0.610002 0.732239 0.000000
vt  0.610002 0.819163 0.000000
vt  0.621556 0.819163 0.000000
vt  0.610002 0.906449 0.000000
vt  0.634200 0.732239 0.000000
vt  0.634200 0.819163 0.000000
vt  0.621556 0.906449 0.000000
vt  0.610002 0.993479 0.000000
vt  0.621556 0.993479 0.000000
vt  0.610002 0.906449 0.000000
vt  0.621556 0.906449 0.000000
vt  0.621556 0.819163 0.000000
vt  0.610002 0.819163 0.000000
vt  0.621556 0.732239 0.000000
vt  0.610002 0.732239 0.000000
vt  0.621556 0.643835 0.000000
vt  0.610002 0.643835 0.000000
vt  0.621556 0.556549 0.000000
vt  0.634200 0.906449 0.000000
vt  0.634200 0.993479 0.000000
vt  0.634200 0.906449 0.000000
vt  0.634200 0.819163 0.000000
vt  0.634200 0.732239 0.000000
vt  0.634200 0.643835 0.000000
vt  0.634200 0.556549 0.000000
vt  0.634200 0.469519 0.000000
vt  0.634200 0.556549 0.000000
vt  0.634200 0.643835 0.000000
vt  0.486656 0.993479 0.000000
vt  0.451603 0.906449 0.000000
vt  0.486656 0.906449 0.000000
vt  0.451603 0.819163 0.000000
vt  0.486656 0.819163 0.000000
vt  0.486656 0.732239 0.000000
vt  0.451603 0.732239 0.000000
vt  0.451603 0.643835 0.000000
vt  0.486656 0.643835 0.000000
vt  0.486656 0.556549 0.000000
vt  0.451603 0.556549 0.000000
vt  0.486656 0.469519 0.000000
vt  0.451603 0.469519 0.000000
vt  0.486656 0.556549 0.000000
vt  0.451603 0.556549 0.000000
vt  0.486656 0.643835 0.000000
vt  0.451603 0.643835 0.000000
vt  0.486656 0.732239 0.000000
vt  0.451603 0.732239 0.000000
vt  0.486656 0.819163 0.000000
vt  0.451603 0.819163 0.000000
vt  0.486656 0.906449 0.000000
vt  0.451603 0.906449 0.000000
vt  0.451603 0.993479 0.000000
vt  0.610002 0.732239 0.000000
vt  0.610002 0.819163 0.000000
vt  0.510737 0.819163 0.000000
vt  0.510737 0.906449 0.000000
vt  0.610002 0.906449 0.000000
vt  0.510737 0.993479 0.000000
vt  0.610002 0.993479 0.000000
vt  0.510737 0.906449 0.000000
vt  0.610002 0.906449 0.000000
vt  0.510737 0.819163 0.000000
vt  0.610002 0.819163 0.000000
vt  0.510737 0.732239 0.000000
vt  0.610002 0.732239 0.000000
vt  0.510737 0.643835 0.000000
vt  0.610002 0.643835 0.000000
vt  0.510737 0.556549 0.000000
vt  0.610002 0.556549 0.000000
vt  0.510737 0.469519 0.000000
vt  0.610002 0.469519 0.000000
vt  0.510737 0.556549 0.000000
vt  0.610002 0.556549 0.000000
vt  0.510737 0.643835 0.000000
vt  0.610002 0.643835 0.000000
vt  0.510737 0.732239 0.000000

vn  0.000000 1.000000 0.000000
vn  0.000000 1.000000 0.000000
vn  0.000000 1.000000 0.000000
vn  0.000000 1.000000 0.000000
vn  0.000000 1.000000 0.000000
vn  0.000000 1.000000 0.000000
vn  0.000000 1.000000 0.000000
vn  0.000000 1.000000 0.000000
vn  0.000000 1.000000 0.000000
vn  0.000000 1.000000 0.000000
vn  0.000000 1.000000 0.000000
vn  0.000000 1.000000 0.000000
vn  0.623676 -0.693809 0.360080
vn  0.489647 -0.871921 0.000000
vn  0.720159 -0.693809 0.000000
vn  0.424046 -0.871921 0.244823
vn  0.283602 -0.958942 0.000000
vn  0.245607 -0.958942 0.141801
vn  0.873386 -0.487028 0.000000
vn  0.623676 -0.693809 -0.360080
vn  0.756375 -0.487028 -0.436693
vn  0.756375 -0.487028 0.436693
vn  0.436693 -0.487028 0.756375
vn  0.360080 -0.693809 0.623676
vn  0.244823 -0.871921 0.424046
vn  0.141801 -0.958942 0.245607
vn  0.000000 -1.000000 0.000000
vn  0.245607 -0.958942 -0.141801
vn  0.424046 -0.871921 -0.244823
vn  0.244823 -0.871921 -0.424046
vn  -0.489647 -0.871921 0.000000
vn  -0.245607 -0.958942 0.141801
vn  -0.424046 -0.871921 0.244823
vn  -0.141801 -0.958942 0.245607
vn  0.000000 -0.958942 0.283602
vn  0.000000 -0.871921 0.489647
vn  0.000000 -0.693809 0.720159
vn  0.000000 -0.487028 0.873386
vn  0.478973 -0.286949 0.829606
vn  0.829606 -0.286949 0.478973
vn  0.957946 -0.286949 0.000000
vn  0.829606 -0.286948 -0.478973
vn  0.000000 -0.286949 0.957946
vn  -0.436693 -0.487028 0.756375
vn  -0.360080 -0.693809 0.623676
vn  -0.244823 -0.871921 0.424046
vn  -0.623676 -0.693809 0.360080
vn  -0.720159 -0.693809 0.000000
vn  -0.873386 -0.487028 0.000000
vn  -0.756375 -0.487028 -0.436693
vn  -0.756375 -0.487028 0.436693
vn  -0.478973 -0.286949 0.829606
vn  -0.829606 -0.286949 0.478973
vn  0.853088 -0.172204 0.492531
vn  0.492531 -0.172204 0.853088
vn  0.000000 -0.172204 0.985061
vn  -0.492531 -0.172204 0.853088
vn  -0.853088 -0.172204 0.492531
vn  -0.957946 -0.286949 0.000000
vn  -0.829606 -0.286948 -0.478973
vn  -0.436693 -0.487028 -0.756375
vn  -0.623676 -0.693809 -0.360080
vn  -0.478973 -0.286948 -0.829606
vn  -0.853088 -0.172204 -0.492531
vn  -0.985061 -0.172204 0.000000
vn  -0.492531 -0.172204 -0.853088
vn  -0.283602 -0.958942 0.000000
vn  -0.424046 -0.871921 -0.244823
vn  -0.360080 -0.693809 -0.623676
vn  0.000000 -0.487028 -0.873386
vn  0.000000 -0.286948 -0.957946
vn  0.000000 -0.172204 -0.985061
vn  0.478973 -0.286948 -0.829606
vn  0.492531 -0.172204 -0.853088
vn  0.853088 -0.172204 -0.492531
vn  0.985061 -0.172204 0.000000
vn  0.436693 -0.487028 -0.756375
vn  0.000000 -0.693809 -0.720159
vn  -0.244823 -0.871921 -0.424046
vn  -0.245607 -0.958942 -0.141801
vn  -0.141801 -0.958942 -0.245607
vn  0.000000 -0.958942 -0.283602
vn  0.000000 -0.871921 -0.489647
vn  0.360080 -0.693809 -0.623676
vn  0.141801 -0.958942 -0.245607
vn  -0.865864 -0.019292 -0.499907
vn  -0.865864 -0.019292 -0.499907
vn  -0.999814 -0.019292 0.000000
vn  -0.499907 -0.019292 -0.865864
vn  -0.499907 -0.019292 -0.865864
vn  0.000000 -0.019292 -0.999814
vn  0.000000 -0.019292 -0.999814
vn  0.499907 -0.019292 -0.865864
vn  0.499907 -0.019292 -0.865864
vn  0.865864 -0.019292 -0.499907
vn  0.865864 -0.019292 -0.499907
vn  0.999814 -0.019292 0.000000
vn  0.999814 -0.019292 0.000000
vn  0.865864 -0.019292 0.499907
vn  0.865864 -0.019292 0.499907
vn  0.499907 -0.019292 0.865864
vn  0.499907 -0.019292 0.865864
vn  0.000000 -0.019292 0.999814
vn  0.000000 -0.019292 0.999814
vn  -0.499907 -0.019292 0.865864
vn  -0.499907 -0.019292 0.865864
vn  -0.865864 -0.019292 0.499907
vn  -0.865864 -0.019292 0.499907
vn  -0.999814 -0.019292 0.000000
vn  -0.431200 -0.867231 0.248953
vn  -0.248953 -0.867231 0.431200
vn  -0.370098 -0.672391 0.641029
vn  -0.497907 -0.867230 0.000000
vn  -0.641029 -0.672391 -0.370098
vn  -0.431200 -0.867231 -0.248953
vn  -0.740196 -0.672391 0.000000
vn  -0.641029 -0.672391 0.370098
vn  -0.456822 -0.406515 0.791239
vn  0.000000 -0.406515 0.913644
vn  0.000000 -0.672391 0.740196
vn  0.456822 -0.406515 0.791239
vn  0.370098 -0.672391 0.641029
vn  0.791239 -0.406515 0.456822
vn  0.641029 -0.672391 0.370098
vn  0.913644 -0.406515 0.000000
vn  0.740196 -0.672391 0.000000
vn  0.791239 -0.406515 -0.456822
vn  0.641029 -0.672391 -0.370098
vn  0.456822 -0.406515 -0.791239
vn  0.370098 -0.672391 -0.641029
vn  0.000000 -0.672391 -0.740196
vn  0.000000 -0.406515 -0.913644
vn  -0.370098 -0.672391 -0.641029
vn  -0.456822 -0.406515 -0.791239
vn  -0.791239 -0.406515 -0.456822
vn  -0.913644 -0.406515 0.000000
vn  -0.791239 -0.406515 0.456822
vn  0.000000 -0.867230 0.497907
vn  0.248953 -0.867231 0.431200
vn  0.431200 -0.867231 0.248953
vn  0.497907 -0.867230 0.000000
vn  0.431200 -0.867231 -0.248953
vn  0.248953 -0.867231 -0.431200
vn  0.000000 -0.867230 -0.497907
vn  -0.248953 -0.867231 -0.431200
vn  0.256439 0.858462 -0.444165
vn  0.000000 0.663236 -0.748411
vn  0.000000 0.858462 -0.512877
vn  -0.374205 0.663236 -0.648143
vn  -0.256439 0.858462 -0.444165
vn  -0.648143 0.663236 -0.374205
vn  -0.444165 0.858462 -0.256439
vn  -0.748411 0.663236 0.000000
vn  -0.512877 0.858462 0.000000
vn  -0.444165 0.858462 0.256439
vn  -0.648143 0.663236 0.374205
vn  -0.256439 0.858462 0.444165
vn  -0.916475 0.400091 0.000000
vn  -0.793691 0.400091 0.458238
vn  -0.374205 0.663236 0.648143
vn  0.000000 0.858462 0.512877
vn  0.000000 0.663236 0.748411
vn  0.256439 0.858462 0.444165
vn  0.374205 0.663236 0.648143
vn  0.648143 0.663236 0.374205
vn  0.444165 0.858462 0.256439
vn  0.748411 0.663236 0.000000
vn  0.512877 0.858462 0.000000
vn  0.648143 0.663236 -0.374205
vn  0.444165 0.858462 -0.256439
vn  0.374205 0.663236 -0.648143
vn  -0.458238 0.400091 0.793691
vn  0.000000 0.400091 0.916475
vn  0.458238 0.400091 0.793691
vn  0.793691 0.400091 0.458238
vn  0.916475 0.400091 0.000000
vn  0.793691 0.400091 -0.458238
vn  0.458238 0.400091 -0.793691
vn  0.000000 0.400091 -0.916475
vn  -0.458238 0.400091 -0.793691
vn  -0.793691 0.400091 -0.458238
vn  0.000000 0.000000 1.000000
vn  -0.500000 0.000000 0.866025
vn  -0.500000 0.000000 0.866025
vn  -0.866025 0.000000 0.500000
vn  -0.866025 0.000000 0.500000
vn  -1.000000 0.000000 0.000000
vn  -1.000000 0.000000 0.000000
vn  -0.866025 0.000000 -0.500000
vn  -0.866025 0.000000 -0.500000
vn  -0.500000 0.000000 -0.866025
vn  -0.500000 0.000000 -0.866025
vn  0.000000 0.000000 -1.000000
vn  0.000000 0.000000 -1.000000
vn  0.500000 0.000000 -0.866025
vn  0.500000 0.000000 -0.866025
vn  0.866025 0.000000 -0.500000
vn  0.866025 0.000000 -0.500000
vn  1.000000 0.000000 0.000000
vn  1.000000 0.000000 0.000000
vn  0.866025 0.000000 0.500000
vn  0.866025 0.000000 0.500000
vn  0.500000 0.000000 0.866025
vn  0.500000 0.000000 0.866025
vn  0.000000 0.000000 1.000000
vn  -1.000000 0.000000 0.000000
vn  -0.866025 0.000000 0.500000
vn  -0.866025 0.000000 0.500000
vn  -0.500000 0.000000 0.866025
vn  -0.500000 0.000000 0.866025
vn  0.000000 0.000000 1.000000
vn  0.000000 0.000000 1.000000
vn  0.500000 0.000000 0.866025
vn  0.500000 0.000000 0.866025
vn  0.866025 0.000000 0.500000
vn  0.866025 0.000000 0.500000
vn  1.000000 0.000000 0.000000
vn  1.000000 0.000000 0.000000
vn  0.866025 0.000000 -0.500000
vn  0.866025 0.000000 -0.500000
vn  0.500000 0.000000 -0.866025
vn  0.500000 0.000000 -0.866025
vn  0.000000 0.000000 -1.000000
vn  0.000000 0.000000 -1.000000
vn  -0.500000 0.000000 -0.866025
vn  -0.500000 0.000000 -0.866025
vn  -0.866025 0.000000 -0.500000
vn  -0.866025 0.000000 -0.500000
vn  -1.000000 0.000000 0.000000

g rdmobj00
usemtl w_grenade_red
f  1/1/1 2/2/2 3/3/3
f  1/1/1 4/4/4 2/2/2
f  1/1/1 5/5/5 4/4/4
f  1/1/1 6/6/6 5/5/5
f  1/1/1 7/7/7 6/6/6
f  1/1/1 8/8/8 7/7/7
f  1/1/1 9/9/9 8/8/8
f  1/1/1 10/10/10 9/9/9
f  1/1/1 11/11/11 10/10/10
f  1/1/1 12/12/12 11/11/11
f  13/13/13 14/14/14 15/15/15
f  13/13/13 16/16/16 14/14/14
f  16/16/16 17/17/17 14/14/14
f  16/16/16 18/18/18 17/17/17
f  19/19/19 15/15/15 20/20/20
f  19/19/19 20/20/20 21/21/21
f  22/22/22 13/13/13 15/15/15
f  22/22/22 15/15/15 19/19/19
f  23/23/23 13/13/13 22/22/22
f  23/23/23 24/24/24 13/13/13
f  24/24/24 16/16/16 13/13/13
f  25/25/25 18/18/18 16/16/16
f  24/24/24 25/25/25 16/16/16
f  25/25/25 26/26/26 18/18/18
f  17/17/17 18/18/18 27/27/27
f  18/18/18 26/26/26 27/27/27
f  14/14/14 17/17/17 28/28/28
f  28/28/28 17/17/17 27/27/27
f  14/14/14 28/28/28 29/29/29
f  15/15/15 14/14/14 29/29/29
f  15/15/15 29/29/29 20/20/20
f  20/20/20 29/29/29 30/30/30
f  31/31/31 32/32/32 33/33/33
f  34/34/34 32/32/32 27/27/27
f  33/33/33 32/32/32 34/34/34
f  26/26/26 35/35/35 27/27/27
f  35/35/35 34/34/34 27/27/27
f  36/36/36 26/26/26 25/25/25
f  36/36/36 35/35/35 26/26/26
f  37/37/37 36/36/36 25/25/25
f  37/37/37 25/25/25 24/24/24
f  38/38/38 24/24/24 23/23/23
f  38/38/38 37/37/37 24/24/24
f  39/39/39 38/38/38 23/23/23
f  40/40/40 23/23/23 22/22/22
f  40/40/40 39/39/39 23/23/23
f  41/41/41 40/40/40 22/22/22
f  41/41/41 22/22/22 19/19/19
f  42/42/42 19/19/19 21/21/21
f  42/42/42 41/41/41 19/19/19
f  39/39/39 43/43/43 38/38/38
f  43/43/43 44/44/44 38/38/38
f  44/44/44 37/37/37 38/38/38
f  45/45/45 36/36/36 37/37/37
f  44/44/44 45/45/45 37/37/37
f  45/45/45 46/46/46 36/36/36
f  46/46/46 35/35/35 36/36/36
f  46/46/46 34/34/34 35/35/35
f  33/33/33 34/34/34 46/46/46
f  47/47/47 46/46/46 45/45/45
f  47/47/47 33/33/33 46/46/46
f  48/48/48 33/33/33 47/47/47
f  48/48/48 31/31/31 33/33/33
f  49/49/49 48/48/48 47/47/47
f  50/50/50 48/48/48 49/49/49
f  49/49/49 47/47/47 51/51/51
f  51/51/51 45/45/45 44/44/44
f  51/51/51 47/47/47 45/45/45
f  43/43/43 52/52/52 44/44/44
f  52/52/52 51/51/51 44/44/44
f  52/52/52 53/53/53 51/51/51
f  49/49/49 51/51/51 53/53/53
f  54/54/54 40/40/40 41/41/41
f  55/55/55 40/40/40 54/54/54
f  55/55/55 39/39/39 40/40/40
f  56/56/56 39/39/39 55/55/55
f  56/56/56 43/43/43 39/39/39
f  57/57/57 52/52/52 43/43/43
f  57/57/57 43/43/43 56/56/56
f  58/58/58 53/53/53 52/52/52
f  58/58/58 52/52/52 57/57/57
f  59/59/59 53/53/53 58/58/58
f  49/49/49 53/53/53 59/59/59
f  60/60/60 50/50/50 49/49/49
f  60/60/60 49/49/49 59/59/59
f  60/60/60 61/61/61 50/50/50
f  62/62/62 31/31/31 48/48/48
f  50/50/50 62/62/62 48/48/48
f  61/61/61 62/62/62 50/50/50
f  60/60/60 63/63/63 61/61/61
f  59/59/59 64/64/64 60/60/60
f  64/64/64 63/63/63 60/60/60
f  59/59/59 58/58/58 65/65/65
f  59/59/59 65/65/65 64/64/64
f  64/64/64 66/66/66 63/63/63
f  31/31/31 67/67/67 32/32/32
f  27/27/27 32/32/32 67/67/67
f  68/68/68 67/67/67 31/31/31
f  62/62/62 68/68/68 31/31/31
f  61/61/61 69/69/69 62/62/62
f  69/69/69 68/68/68 62/62/62
f  63/63/63 70/70/70 61/61/61
f  70/70/70 69/69/69 61/61/61
f  63/63/63 71/71/71 70/70/70
f  66/66/66 71/71/71 63/63/63
f  66/66/66 72/72/72 71/71/71
f  73/73/73 42/42/42 21/21/21
f  72/72/72 73/73/73 71/71/71
f  74/74/74 42/42/42 73/73/73
f  72/72/72 74/74/74 73/73/73
f  74/74/74 75/75/75 42/42/42
f  75/75/75 41/41/41 42/42/42
f  54/54/54 41/41/41 76/76/76
f  75/75/75 76/76/76 41/41/41
f  71/71/71 73/73/73 77/77/77
f  71/71/71 77/77/77 70/70/70
f  73/73/73 21/21/21 77/77/77
f  77/77/77 78/78/78 70/70/70
f  70/70/70 78/78/78 69/69/69
f  69/69/69 79/79/79 68/68/68
f  78/78/78 79/79/79 69/69/69
f  68/68/68 80/80/80 67/67/67
f  67/67/67 80/80/80 27/27/27
f  79/79/79 80/80/80 68/68/68
f  80/80/80 81/81/81 27/27/27
f  79/79/79 81/81/81 80/80/80
f  81/81/81 82/82/82 27/27/27
f  30/30/30 82/82/82 83/83/83
f  83/83/83 82/82/82 81/81/81
f  78/78/78 83/83/83 79/79/79
f  83/83/83 81/81/81 79/79/79
f  77/77/77 84/84/84 78/78/78
f  84/84/84 83/83/83 78/78/78
f  20/20/20 30/30/30 84/84/84
f  21/21/21 84/84/84 77/77/77
f  21/21/21 20/20/20 84/84/84
f  84/84/84 30/30/30 83/83/83
f  29/29/29 85/85/85 30/30/30
f  30/30/30 85/85/85 82/82/82
f  82/82/82 85/85/85 27/27/27
f  85/85/85 28/28/28 27/27/27
f  29/29/29 28/28/28 85/85/85
f  86/86/86 87/87/87 88/88/88
f  89/89/89 87/87/87 86/86/86
f  89/89/89 90/90/90 87/87/87
f  91/91/91 90/90/90 89/89/89
f  91/91/91 89/89/89 92/92/92
f  93/93/93 91/91/91 92/92/92
f  93/93/93 92/92/92 94/94/94
f  95/95/95 93/93/93 94/94/94
f  95/95/95 94/94/94 96/96/96
f  97/97/97 95/95/95 96/96/96
f  97/97/97 96/96/96 98/98/98
f  99/99/99 97/97/97 98/98/98
f  99/99/99 98/98/98 100/100/100
f  101/101/101 99/99/99 100/100/100
f  101/101/101 100/100/100 102/102/102
f  103/103/103 101/101/101 102/102/102
f  103/103/103 102/102/102 104/104/104
f  105/105/105 103/103/103 104/104/104
f  105/105/105 104/104/104 106/106/106
f  107/107/107 105/105/105 106/106/106
f  108/108/108 88/88/88 107/107/107
f  107/107/107 106/106/106 108/108/108
f  86/86/86 88/88/88 109/109/109
f  108/108/108 109/109/109 88/88/88
f  110/110/110 111/111/111 112/112/112
f  113/113/113 114/114/114 115/115/115
f  116/116/116 113/113/113 110/110/110
f  113/113/113 116/116/116 114/114/114
f  116/116/116 110/110/110 117/117/117
f  110/110/110 112/112/112 117/117/117
f  118/118/118 117/117/117 112/112/112
f  112/112/112 119/119/119 118/118/118
f  112/112/112 120/120/120 119/119/119
f  120/120/120 121/121/121 119/119/119
f  120/120/120 122/122/122 121/121/121
f  122/122/122 123/123/123 121/121/121
f  122/122/122 124/124/124 123/123/123
f  124/124/124 125/125/125 123/123/123
f  124/124/124 126/126/126 125/125/125
f  126/126/126 127/127/127 125/125/125
f  126/126/126 128/128/128 127/127/127
f  128/128/128 129/129/129 127/127/127
f  128/128/128 130/130/130 129/129/129
f  131/131/131 129/129/129 130/130/130
f  131/131/131 132/132/132 129/129/129
f  133/133/133 132/132/132 131/131/131
f  115/115/115 114/114/114 133/133/133
f  114/114/114 134/134/134 133/133/133
f  133/133/133 134/134/134 132/132/132
f  114/114/114 135/135/135 134/134/134
f  116/116/116 135/135/135 114/114/114
f  116/116/116 136/136/136 135/135/135
f  136/136/136 116/116/116 117/117/117
f  118/118/118 137/137/137 117/117/117
f  136/136/136 117/117/117 137/137/137
f  138/138/138 120/120/120 112/112/112
f  138/138/138 112/112/112 111/111/111
f  139/139/139 120/120/120 138/138/138
f  139/139/139 122/122/122 120/120/120
f  140/140/140 124/124/124 122/122/122
f  140/140/140 122/122/122 139/139/139
f  124/124/124 140/140/140 141/141/141
f  124/124/124 141/141/141 126/126/126
f  126/126/126 141/141/141 142/142/142
f  126/126/126 142/142/142 128/128/128
f  128/128/128 143/143/143 130/130/130
f  128/128/128 142/142/142 143/143/143
f  144/144/144 130/130/130 143/143/143
f  144/144/144 131/131/131 130/130/130
f  115/115/115 133/133/133 145/145/145
f  145/145/145 133/133/133 131/131/131
f  145/145/145 131/131/131 144/144/144
f  146/146/146 147/147/147 148/148/148
f  148/148/148 147/147/147 149/149/149
f  148/148/148 149/149/149 150/150/150
f  150/150/150 149/149/149 151/151/151
f  150/150/150 151/151/151 152/152/152
f  152/152/152 151/151/151 153/153/153
f  152/152/152 153/153/153 154/154/154
f  155/155/155 154/154/154 153/153/153
f  155/155/155 153/153/153 156/156/156
f  156/156/156 157/157/157 155/155/155
f  158/158/158 153/153/153 151/151/151
f  153/153/153 159/159/159 156/156/156
f  153/153/153 158/158/158 159/159/159
f  156/156/156 160/160/160 157/157/157
f  160/160/160 156/156/156 159/159/159
f  160/160/160 161/161/161 157/157/157
f  160/160/160 162/162/162 161/161/161
f  162/162/162 163/163/163 161/161/161
f  162/162/162 164/164/164 163/163/163
f  163/163/163 164/164/164 165/165/165
f  163/163/163 165/165/165 166/166/166
f  166/166/166 165/165/165 167/167/167
f  166/166/166 167/167/167 168/168/168
f  168/168/168 167/167/167 169/169/169
f  168/168/168 169/169/169 170/170/170
f  170/170/170 171/171/171 146/146/146
f  146/146/146 171/171/171 147/147/147
f  170/170/170 169/169/169 171/171/171
f  162/162/162 160/160/160 172/172/172
f  160/160/160 159/159/159 172/172/172
f  173/173/173 164/164/164 162/162/162
f  162/162/162 172/172/172 173/173/173
f  174/174/174 165/165/165 164/164/164
f  173/173/173 174/174/174 164/164/164
f  175/175/175 167/167/167 165/165/165
f  174/174/174 175/175/175 165/165/165
f  176/176/176 169/169/169 167/167/167
f  175/175/175 176/176/176 167/167/167
f  176/176/176 177/177/177 169/169/169
f  177/177/177 171/171/171 169/169/169
f  177/177/177 178/178/178 171/171/171
f  179/179/179 147/147/147 171/171/171
f  179/179/179 171/171/171 178/178/178
f  180/180/180 147/147/147 179/179/179
f  180/180/180 149/149/149 147/147/147
f  181/181/181 151/151/151 149/149/149
f  158/158/158 151/151/151 181/181/181
f  181/181/181 149/149/149 180/180/180
f  182/182/182 183/183/183 184/184/184
f  184/184/184 183/183/183 185/185/185
f  184/184/184 185/185/185 186/186/186
f  187/187/187 186/186/186 185/185/185
f  187/187/187 185/185/185 188/188/188
f  189/189/189 187/187/187 188/188/188
f  189/189/189 190/190/190 187/187/187
f  189/189/189 191/191/191 190/190/190
f  189/189/189 192/192/192 191/191/191
f  192/192/192 193/193/193 191/191/191
f  192/192/192 194/194/194 193/193/193
f  194/194/194 195/195/195 193/193/193
f  194/194/194 196/196/196 195/195/195
f  196/196/196 197/197/197 195/195/195
f  196/196/196 198/198/198 197/197/197
f  198/198/198 199/199/199 197/197/197
f  198/198/198 200/200/200 199/199/199
f  200/200/200 201/201/201 199/199/199
f  200/200/200 202/202/202 201/201/201
f  202/202/202 203/203/203 201/201/201
f  202/202/202 204/204/204 203/203/203
f  204/204/204 182/182/182 203/203/203
f  182/182/182 205/205/205 183/183/183
f  204/204/204 205/205/205 182/182/182
f  206/206/206 207/207/207 208/208/208
f  209/209/209 208/208/208 207/207/207
f  209/209/209 207/207/207 210/210/210
f  211/211/211 209/209/209 210/210/210
f  211/211/211 210/210/210 212/212/212
f  213/213/213 211/211/211 212/212/212
f  213/213/213 212/212/212 214/214/214
f  215/215/215 213/213/213 214/214/214
f  215/215/215 214/214/214 216/216/216
f  217/217/217 215/215/215 216/216/216
f  217/217/217 216/216/216 218/218/218
f  219/219/219 217/217/217 218/218/218
f  219/219/219 218/218/218 220/220/220
f  221/221/221 219/219/219 220/220/220
f  221/221/221 220/220/220 222/222/222
f  223/223/223 221/221/221 222/222/222
f  223/223/223 222/222/222 224/224/224
f  225/225/225 223/223/223 224/224/224
f  225/225/225 224/224/224 226/226/226
f  227/227/227 225/225/225 226/226/226
f  227/227/227 228/228/228 206/206/206
f  227/227/227 226/226/226 228/228/228
f  206/206/206 208/208/208 229/229/229
f  227/227/227 206/206/206 229/229/229

g
